<?xml version="1.0" encoding="UTF-8" standalone="no"?>
<!-- Created with Inkscape (http://www.inkscape.org/) -->

<svg
   width="64"
   height="64"
   viewBox="0 0 16.933333 16.933333"
   version="1.1"
   id="svg1"
   xml:space="preserve"
   inkscape:version="1.4.3 (0d15f75042, 2025-12-25)"
   sodipodi:docname="category.svg"
   xmlns:inkscape="http://www.inkscape.org/namespaces/inkscape"
   xmlns:sodipodi="http://sodipodi.sourceforge.net/DTD/sodipodi-0.dtd"
   xmlns="http://www.w3.org/2000/svg"
   xmlns:svg="http://www.w3.org/2000/svg"><sodipodi:namedview
     id="namedview1"
     pagecolor="#ffffff"
     bordercolor="#000000"
     borderopacity="0.25"
     inkscape:showpageshadow="2"
     inkscape:pageopacity="0.0"
     inkscape:pagecheckerboard="0"
     inkscape:deskcolor="#d1d1d1"
     inkscape:document-units="mm"
     inkscape:zoom="11.245879"
     inkscape:cx="28.677171"
     inkscape:cy="32.634176"
     inkscape:window-width="1920"
     inkscape:window-height="1011"
     inkscape:window-x="0"
     inkscape:window-y="0"
     inkscape:window-maximized="1"
     inkscape:current-layer="layer1" /><defs
     id="defs1" /><g
     inkscape:label="Layer 1"
     inkscape:groupmode="layer"
     id="layer1"><circle
       style="opacity:0.7;fill:#ffffff;fill-opacity:1;stroke:none;stroke-width:0.122465;stroke-dasharray:none"
       id="path4-5"
       cx="8.4666662"
       cy="8.598958"
       r="7.2744584" /><circle
       style="opacity:0.7;fill:#8ff0a4;fill-opacity:1;stroke:none;stroke-width:0.122465;stroke-dasharray:none"
       id="path4"
       cx="8.4666662"
       cy="8.598958"
       r="7.2744584" /><path
       d="M 5.6369334,7.9950447 8.2308542,3.7504465 10.824776,7.9950447 Z M 3.9862564,12.947076 V 9.1740997 h 3.7729758 v 3.7729763 z m 0.9432439,-0.943244 h 1.886488 V 10.117344 H 4.9295003 Z M 7.3111909,7.0518008 H 9.1505174 L 8.2308542,5.5661909 Z"
       id="path1-5"
       style="fill:#26a269;fill-opacity:1;stroke-width:0.0117905"
       sodipodi:nodetypes="cccccccccccccccccc" /><g
       fill="#222222"
       id="g3"
       transform="matrix(0.37294265,0,0,0.37294265,8.3010263,-10.782367)"><path
         d="M 1.6495137,4.1700568 C 1.4897789,4.1762017 1.3300426,4.2069197 1.176451,4.2622124 0.01529656,4.4342353 -3.0012488,5.3496427 -3.0012488,10.479613 v 7.863905 h 6.2911245 v -7.378554 c 0.1597348,0.110582 0.3194711,0.215027 0.4792075,0.307183 0.9092625,0.503782 1.8185282,0.681948 2.666355,0.749529 v -1.542063 h 1.572781 V 8.9068316 c -0.0061,0 -0.0061,0 -0.01229,0 C 6.7794842,8.9129749 5.9316572,8.8699688 5.2927149,8.5136363 4.6537726,8.1634472 3.9226747,7.4077746 3.2100083,5.263632 2.9949792,4.5878268 2.3560369,4.1393389 1.6495137,4.1700568 Z m 0,0"
         id="path1"
         style="fill:#26a269;fill-opacity:1;stroke:none;stroke-width:1.57278" /><path
         d="m 14.299343,-3.6754173 c -1.73866,0 -3.145562,1.4069014 -3.145562,3.14556221 0,1.73866079 1.406902,3.14556219 3.145562,3.14556219 1.738661,0 3.145563,-1.4069014 3.145563,-3.14556219 0,-1.73866081 -1.406902,-3.14556221 -3.145563,-3.14556221 z m -0.06758,7.8454741 C 13.580534,4.1946315 13.009172,4.6308329 12.80643,5.263632 12.093763,7.4077746 11.362665,8.1634472 10.723723,8.5136363 10.084781,8.8699688 9.2369542,8.9129749 8.0143622,8.9068316 h -0.0061 v 1.5727814 h -1.572781 v 1.542063 c 0.264178,0.01843 0.522212,0.02458 0.774104,0.02458 0.0061,-8e-6 0.0061,0.0061 0.01229,0.0061 h 0.774104 0.01843 0.780247 c 0.0061,0 0.0061,-0.0061 0.01228,-0.0061 1.056714,-0.01227 2.2485858,-0.116732 3.4404578,-0.774104 0.159737,-0.09215 0.319473,-0.196598 0.479208,-0.307183 v 7.378536 h 6.291124 V 10.4796 c 4e-6,-5.1299703 -3.016542,-6.0453777 -4.171553,-6.2174006 -0.159735,-0.055293 -0.319471,-0.086011 -0.479206,-0.092156 -0.04915,-0.00615 -0.09215,-0.00615 -0.135165,0 z m 0,0"
         fill-opacity="0.5"
         id="path2"
         style="fill:#33d17a;fill-opacity:1;stroke-width:1.57278" /><path
         d="m 1.7170945,-3.6754173 c -1.73866074,0 -3.1455622,1.4069014 -3.1455622,3.14556221 0,1.73866079 1.40690146,3.14556219 3.1455622,3.14556219 1.7386608,0 3.1455623,-1.4069014 3.1455623,-3.14556219 0,-1.73866081 -1.4069015,-3.14556221 -3.1455623,-3.14556221 z m 0,0"
         id="path3"
         style="fill:#26a269;fill-opacity:1;stroke:none;stroke-width:1.57278" /></g><path
       d="m 10.830178,13.182888 c -0.589528,0 -1.0906287,-0.206335 -1.5032997,-0.619004 -0.41267,-0.41267 -0.619006,-0.913769 -0.619006,-1.503296 0,-0.589528 0.206336,-1.0906264 0.619006,-1.5032954 0.412671,-0.4126692 0.9137717,-0.6190038 1.5032997,-0.6190038 0.589527,0 1.090626,0.2063346 1.503295,0.6190038 0.412671,0.412669 0.619006,0.9137674 0.619006,1.5032954 0,0.589527 -0.206335,1.090626 -0.619006,1.503296 -0.412669,0.412669 -0.913768,0.619004 -1.503295,0.619004 z m 0,-0.943244 c 0.330136,0 0.609179,-0.113975 0.83713,-0.341926 0.22795,-0.227951 0.341925,-0.506994 0.341925,-0.83713 0,-0.330136 -0.113975,-0.609179 -0.341925,-0.837129 -0.227951,-0.2279507 -0.506994,-0.3419261 -0.83713,-0.3419261 -0.330135,0 -0.609179,0.1139754 -0.8371297,0.3419261 -0.227952,0.22795 -0.341928,0.506993 -0.341928,0.837129 0,0.330136 0.113976,0.609179 0.341928,0.83713 0.2279507,0.227951 0.5069947,0.341926 0.8371297,0.341926 z"
       style="fill:#33d17a;fill-opacity:1;stroke-width:0.0117905"
       id="path1-53" /></g></svg>
